<svg xmlns="http://www.w3.org/2000/svg" viewBox="0 0 3361.35195 1180.63025">
  <defs>
    <style>
      .cls-1 {
        fill: #205e3b;
      }

      .cls-2 {
        fill: #353535;
      }

      .cls-3 {
        fill: #2f9e41;
      }

      .cls-4 {
        fill: #f7f7f7;
      }

      .cls-5 {
        fill: #cd191e;
      }
    </style>
  </defs>
  <g id="Layer_2" data-name="Layer 2">
    <g id="D6">
      <g id="logo">
        <g id="dado-tras-2" data-name="dado-tras">
          <g id="fundo-5" data-name="fundo">
            <path class="cls-2" d="M271.81383,115.08524C285.68041,90.76,319.93466,70.9571,347.93439,71.07884l358.18278,1.55732c27.99974.12174,63.11488,19.60777,78.03365,43.30229L984.90074,434.77656c14.91878,23.69452,15.46567,62.80112,1.21532,86.90356L794.93551,845.03488c-14.25035,24.10244-48.81862,43.91847-76.81837,44.03563l-376.18271,1.574c-27.99976.11716-62.20064-19.71981-76.002-44.08215L86.1191,529.15266c-13.80133-24.36234-13.74794-64.19764.11863-88.5229Z"/>
          </g>
          <g id="face-esquerda-3" data-name="face-esquerda">
            <g id="face-7" data-name="face">
              <path class="cls-3" d="M724.48729,843.57436c13.09617,24.74854.90246,45.12029-27.09714,45.27056L341.84323,890.753c-27.9996.15027-62.23906-19.63763-76.0877-43.9731L90.296,538.45438c-13.84864-24.33547-2.27072-44.39164,25.72872-44.56926l371.093-2.3541c27.99943-.17762,61.62311,19.92586,74.71929,44.6744Z"/>
            </g>
            <path id="esq-baixo" class="cls-4" d="M385.60553,828.60839c14.009,25.11442,1.24014,45.52391-28.4611,45.6845-29.69691.16057-65.26619-19.98219-79.506-45.08867-14.302-25.216-1.68355-45.8752,28.24468-46.04373C335.8157,782.99193,371.53538,803.38435,385.60553,828.60839Z"/>
            <path id="esq-cima" class="cls-4" d="M235.05385,558.70917c14.67022,26.29981,1.88314,47.68374-28.49768,47.868-30.37629.18426-67.03764-20.894-81.94943-47.18515-14.97839-26.4086-2.35225-48.06009,28.26611-48.253C183.49581,510.94608,220.31809,532.29186,235.05385,558.70917Z"/>
            <path id="meio" class="cls-4" d="M466.9579,694.30569c13.99685,25.70867.9267,46.60653-29.13335,46.77885-30.05562.1723-65.90981-20.43955-80.14314-46.13993-14.29619-25.81388-1.37827-46.97037,28.91431-47.151C416.89281,647.613,452.89923,668.48347,466.9579,694.30569Z"/>
            <path id="dir-baixo" class="cls-4" d="M693.741,826.90793c13.34944,25.13705.01172,45.565-29.73425,45.72579-29.74162.16081-64.81511-20-78.39612-45.12907-13.64033-25.23885-.44657-45.91683,29.52709-46.08562C645.11575,781.25022,680.3332,801.66107,693.741,826.90793Z"/>
            <path id="dir-cima" class="cls-4" d="M550.27456,556.76021c13.98,26.32445.59769,47.72843-29.82994,47.913-30.4231.18454-66.5657-20.91327-80.788-47.22907-14.28593-26.43342-1.05765-48.10542,29.60827-48.29864C499.93537,508.95225,536.232,530.31808,550.27456,556.76021Z"/>
          </g>
          <g id="face-direita-3" data-name="face-direita">
            <g id="face-8" data-name="face">
              <path class="cls-3" d="M984.84068,434.52863c14.95181,23.67369,15.55073,62.778,1.33094,86.8985L804.4254,829.71629c-14.21979,24.12048-36.9798,23.82927-50.5778-.64714L579.65851,515.5288c-13.598-24.4764-13.54123-64.49706.12615-88.93479L742.81243,135.095c13.66738-24.43773,37.08308-25.06285,52.03488-1.38916Z"/>
            </g>
            <path id="esq-baixo-2" data-name="esq-baixo" class="cls-4" d="M804.51786,696.46556c15.62119,27.136,16.31194,69.83849,1.46385,95.08487-14.798,25.1612-39.25457,23.13477-54.54924-4.23249-15.1624-27.13058-15.65963-69.10275-1.18542-94.034C764.76949,668.26959,789.03259,669.56569,804.51786,696.46556Z"/>
            <path id="meio-2" data-name="meio" class="cls-4" d="M799.24127,428.419c15.37854,25.59437,16.04762,67.11183,1.41781,92.45395-14.58115,25.2578-38.671,24.56619-53.73236-1.26692-14.93292-25.61281-15.41419-66.43937-1.14761-91.45985C760.09259,403.04346,783.99467,403.04419,799.24127,428.419Z"/>
            <path id="dir-cima-2" data-name="dir-cima" class="cls-4" d="M794.1105,167.77984c15.14325,24.12717,15.79159,64.50849,1.37373,89.9313-14.37055,25.33941-38.10447,25.91006-52.93948,1.53758-14.71023-24.16748-15.17623-63.89495-1.1114-88.99051C755.54377,145.0813,779.09538,143.85681,794.1105,167.77984Z"/>
          </g>
          <g id="face-topo-2" data-name="face-topo">
            <g id="face-9" data-name="face">
              <path class="cls-5" d="M550.789,417.92c-13.71973,24.40838-47.85169,44.70782-75.8488,45.10986l-354.01031,5.08365c-27.99712.402-39.56413-19.17472-25.70448-43.50392L272.28089,113.80675c13.85966-24.3292,48.10785-44.06729,76.1071-43.86243L693.845,72.472c27.99925.20487,39.68249,20.343,25.96277,44.75136Z"/>
            </g>
            <path id="meio-3" data-name="meio" class="cls-2" d="M465.59428,267.53785c-14.41951,25.52369-49.81245,46.3753-79.12662,46.55405-29.409.17933-41.5154-20.50365-26.96552-46.17717,14.53733-25.65136,50.11733-46.45355,79.39577-46.48293C468.08208,221.40251,480.00142,242.03606,465.59428,267.53785Z"/>
          </g>
        </g>
        <g id="dado-frente-2" data-name="dado-frente">
          <g id="fundo-6" data-name="fundo">
            <path class="cls-2" d="M976.7724,256.90257c27.8058-3.292,64.0706,12.51268,80.58844,35.12155l211.23775,289.13267c16.51784,22.60887,21.67546,62.43747,11.46138,88.508L1142.61733,1020.475c-10.21408,26.07053-41.3622,49.72259-69.218,52.56013l-373.71,38.068c-27.85585,2.83754-64.32183-13.22086-81.03551-35.68534L394.1019,773.60273c-16.71368-22.46448-21.02884-61.75438-9.58923-87.3109L533.52912,353.38347c11.4396-25.55651,43.54948-49.15986,71.35529-52.45188Z"/>
          </g>
          <g id="face-esquerda-4" data-name="face-esquerda">
            <g id="face-10" data-name="face">
              <path class="cls-3" d="M659.04984,1053.54c-12.14416,25.22934-35.77685,27.50768-52.51709,5.063L393.96041,773.59376c-16.74023-22.4447-21.13808-61.7456-9.773-87.33533L528.1809,362.04158c11.36509-25.58974,34.3783-28.17634,51.14046-5.748L801.48005,653.54942c16.76216,22.42833,20.54052,61.421,8.39636,86.65031Z"/>
            </g>
            <path id="esq-baixo-3" data-name="esq-baixo" class="cls-4" d="M469.94935,771.92709c-11.89681,26.18114-35.90125,28.019-53.65981,4.211-17.756-23.80457-22.65755-64.38633-10.90416-90.74855,11.80468-26.47727,35.92078-28.58437,53.82047-4.59836C477.10816,704.78069,481.89808,745.63167,469.94935,771.92709Z"/>
            <path id="esq-cima-2" data-name="esq-cima" class="cls-4" d="M597.80172,490.564c-12.45832,27.41688-37.25781,29.81847-55.43881,5.47757-18.17829-24.33727-22.9752-66.35316-10.6672-93.95934,12.363-27.72947,37.28225-30.41939,55.61119-5.89245C605.6386,420.72044,610.31571,463.02467,597.80172,490.564Z"/>
            <path id="meio-4" data-name="meio" class="cls-4" d="M626.32238,757.68289c-12.38226,26.52407-36.95858,28.40934-54.93955,4.31949-17.97833-24.08629-22.6715-65.17577-10.43627-91.88526,12.28926-26.82744,36.98336-28.98872,55.109-4.71665C634.184,689.67615,638.75934,731.04164,626.32238,757.68289Z"/>
            <path id="dir-baixo-2" data-name="dir-baixo" class="cls-4" d="M654.21324,1018.90312c-12.3065,25.66377-36.66342,27.05475-54.44872,3.21086-17.78272-23.84042-22.37552-64.03386-10.21286-89.87927,12.21578-25.95829,36.6885-27.61357,54.61536-3.59115C662.09651,952.6695,666.5735,993.12724,654.21324,1018.90312Z"/>
            <path id="dir-cima-3" data-name="dir-cima" class="cls-4" d="M786.47109,743.09475c-12.88781,26.876-38.05675,28.81048-56.26577,4.43207-18.2063-24.37477-22.67955-65.98481-9.94252-93.05074,12.79395-27.18691,38.08715-29.40441,56.44457-4.83937C795.06754,674.20545,799.41653,716.09855,786.47109,743.09475Z"/>
          </g>
          <g id="face-baixo-2" data-name="face-baixo">
            <g id="face-11" data-name="face">
              <path class="cls-3" d="M1142.78121,1020.2795c-10.17771,26.08475-41.29311,49.77733-69.14535,52.65017L717.6504,1109.64813c-27.85223,2.87284-41.12719-15.61711-29.49991-41.08879L837.09486,742.26965c11.62728-25.47168,43.86933-49.18046,71.649-52.68618l331.36246-41.81709c27.77967-3.50572,42.18127,14.968,32.00356,41.05278Z"/>
            </g>
            <path id="esq-baixo-4" data-name="esq-baixo" class="cls-4" d="M824.94458,1030.63089c-12.56681,28.67852-46.52351,54.58074-75.65479,57.61621-29.033,3.02524-41.91847-17.86006-28.97171-46.41308,12.83479-28.3061,46.31859-53.61906,74.97433-56.76839C824.04366,981.90581,837.40205,1002.20189,824.94458,1030.63089Z"/>
            <path id="esq-cima-3" data-name="esq-cima" class="cls-4" d="M950.31335,744.52879c-11.48835,26.21739-43.684,50.37354-71.7411,53.74455-27.9666,3.36013-40.89929-15.256-29.05729-41.37255,11.744-25.90049,43.51573-49.537,71.1311-52.9968C948.34947,700.43311,961.70611,718.52957,950.31335,744.52879Z"/>
            <path id="dir-baixo-3" data-name="dir-baixo" class="cls-4" d="M1130.36125,997.92769c-11.42579,29.04148-45.30231,55.33229-75.47834,58.47663-30.07239,3.13354-44.70284-17.962-32.86684-46.87532,11.73185-28.65888,45.14181-54.342,74.807-57.60224C1126.58886,948.65544,1141.68587,969.14333,1130.36125,997.92769Z"/>
            <path id="dir-cima-4" data-name="dir-cima" class="cls-4" d="M1244.25,708.451c-10.429,26.508-42.54282,50.99831-71.56073,54.48476-28.9227,3.475-43.46934-15.28718-32.65993-41.69271,10.7185-26.18342,42.4143-50.1389,70.9593-53.71522C1239.62614,663.93992,1254.59077,682.1673,1244.25,708.451Z"/>
          </g>
          <g id="face-direita-4" data-name="face-direita">
            <g id="face-12" data-name="face">
              <path class="cls-3" d="M898.51413,661.09941C870.727,664.54558,834.131,649.12524,817.18957,626.832L602.97365,344.94427c-16.94139-22.29325-8.0518-43.2222,19.75465-46.50876L977.95253,256.45c27.80645-3.28656,64.01972,12.56051,80.474,35.21572l203.01357,279.52181c16.45422,22.65521,7.18186,44.01089-20.60526,47.45706Z"/>
            </g>
            <path id="cima-dir" class="cls-4" d="M1032.08074,363.17212c-29.25025,3.50608-67.16507-12.93319-84.71372-36.79088-17.60578-23.93535-8.02721-46.22681,21.42311-49.716,29.42475-3.48614,67.411,13.13678,84.81648,37.05514C1070.95572,337.56126,1061.30573,359.66907,1032.08074,363.17212Z"/>
            <path id="cima-meio" class="cls-4" d="M878.54709,381.57547c-29.38308,3.522-67.64063-12.92387-85.48007-36.80588-17.89762-23.95992-8.44725-46.28442,21.13761-49.78954,29.5591-3.50206,67.89013,13.1281,85.58578,37.071C917.4286,355.9163,907.90475,378.05651,878.54709,381.57547Z"/>
            <path id="cima-esq" class="cls-4" d="M724.31552,400.06242c-29.51682,3.538-68.11985-12.91433-86.25251-36.82062-18.192-23.98447-8.87106-46.34208,20.84925-49.86325,29.69439-3.51809,68.373,13.11919,86.36122,37.0867C763.2032,374.35475,753.80675,396.52745,724.31552,400.06242Z"/>
            <path id="baixo-dir" class="cls-4" d="M1208.51928,604.33184c-28.6942,3.55088-65.69441-12.22236-82.66918-35.29984-17.02911-23.15137-7.43845-44.84222,21.4484-48.378,28.86218-3.53271,65.92955,12.41556,82.76581,35.55168C1246.84693,579.26814,1237.18911,600.784,1208.51928,604.33184Z"/>
            <path id="baixo-meio" class="cls-4" d="M1057.90885,622.96979c-28.82236,3.56674-66.15279-12.2111-83.40753-35.31039-17.31009-23.17337-7.84266-44.89515,21.174-48.44676,28.99178-3.54858,66.39133,12.4049,83.507,35.56306C1096.24323,597.85993,1086.70668,619.40608,1057.90885,622.96979Z"/>
            <path id="baixo-esq" class="cls-4" d="M906.62511,641.691c-28.95138,3.58271-66.61463-12.19965-84.15168-35.32067C804.88,583.175,814.223,561.42224,843.37027,557.85464c29.12227-3.56454,66.85659,12.394,84.25394,35.57419C944.96588,616.53483,935.55179,638.11137,906.62511,641.691Z"/>
          </g>
        </g>
      </g>
    </g>
  </g>
</svg>
